<svg xmlns="http://www.w3.org/2000/svg" width="512" height="512" viewBox="0 0 512 512" version="1.1">
	<path d="M 254.746 23.622 C 253.756 25.260, 250.169 38.476, 249.486 43 C 248.704 48.188, 247.347 50.611, 242.776 54.984 C 237.894 59.653, 233.612 61.505, 222 63.966 C 175.412 73.841, 139.791 96.477, 111.880 133.943 C 45.757 222.705, 75.759 351.027, 174.231 400.616 C 182.424 404.742, 204.435 412.208, 213.500 413.935 C 216.800 414.564, 220.447 415.278, 221.605 415.522 C 223.227 415.864, 224.229 417.635, 225.970 423.233 C 228.956 432.840, 235.883 449.805, 241.047 460.162 C 247.766 473.638, 255.289 487, 256.156 487 C 258.522 487, 281.501 435.923, 287.464 417.408 C 287.658 416.807, 291.120 415.514, 295.158 414.535 C 315.816 409.526, 340.521 399.377, 354.998 389.953 C 406.469 356.448, 438.264 290.755, 433.020 228.750 C 428.870 179.673, 404.922 132.394, 369.145 102.639 C 344.931 82.502, 321.922 71.358, 289.519 64.076 C 274.632 60.731, 271.146 59.118, 265.650 53.035 C 262.083 49.086, 261.719 48.088, 258.516 33.500 C 256.637 24.942, 255.596 22.215, 254.746 23.622 M 246.632 60.863 C 244.270 63.328, 244.111 63.829, 245.520 64.369 C 248.539 65.528, 249.778 65.021, 250.447 62.355 C 251.458 58.325, 249.716 57.644, 246.632 60.863 M 259 60.941 C 259 64.463, 260.233 65.409, 263.693 64.541 L 266.272 63.894 263.449 60.947 C 259.900 57.242, 259 57.241, 259 60.941 M 117.979 65.400 C 87.272 83.467, 57.347 123.356, 42.567 165.922 C 34.437 189.334, 31.134 207.275, 30.308 232.500 C 28.498 287.774, 44.287 335.987, 78.160 378.622 C 100.984 407.351, 131.241 430.185, 163.424 442.970 C 179.501 449.356, 211.769 456.927, 213.251 454.661 C 213.976 453.552, 213.180 439.991, 212.334 439.047 C 212.111 438.798, 207.880 437.777, 202.932 436.777 C 166.199 429.356, 131.022 410.184, 104.930 383.365 C 64.632 341.944, 45.250 291.045, 47.294 232.009 C 48.388 200.406, 55.894 170.727, 70.438 140.500 C 81.896 116.686, 95.060 98.283, 116.367 76.296 C 124.345 68.063, 128.042 63.551, 127.648 62.525 C 126.814 60.352, 126.299 60.505, 117.979 65.400 M 385 63.632 C 385 64.529, 389.444 69.877, 394.875 75.516 C 431.091 113.116, 450.658 151.036, 460.661 203 C 463.814 219.381, 464.965 249.109, 463.053 264.784 C 458.674 300.683, 444.946 335.147, 423.134 365 C 415.544 375.388, 395.278 395.232, 384.502 402.828 C 364.195 417.142, 337.894 429.091, 313.352 435.152 C 306.284 436.898, 299.918 438.471, 299.207 438.648 C 298.215 438.895, 298.069 440.780, 298.580 446.735 C 298.947 451.006, 299.551 454.837, 299.923 455.249 C 300.781 456.201, 328.636 449.180, 340.500 445.021 C 375.731 432.670, 408.663 409.634, 431.309 381.500 C 465.434 339.105, 483.600 286.447, 481.675 235.500 C 480.442 202.874, 472.870 173.122, 458.006 142.500 C 450.203 126.424, 443.926 116.450, 433.149 103 C 420.192 86.830, 405.743 73.508, 392.559 65.575 C 385.859 61.544, 385 61.323, 385 63.632 M 236.768 75.112 C 195.704 79.073, 158.133 98.199, 131.442 128.729 C 106.370 157.406, 92.293 190.693, 88.721 229.741 C 85.657 263.242, 96.508 303.489, 116.877 334.167 C 132.621 357.879, 152.036 375.192, 176.682 387.496 C 187.561 392.927, 205.407 398.980, 212.786 399.742 L 218.305 400.311 217.727 395.998 C 217.408 393.625, 215.504 388.357, 213.494 384.290 C 209.888 376.995, 207.123 374.200, 199.229 369.870 C 196.865 368.574, 196.001 367.143, 195.004 362.870 C 194.314 359.917, 192.194 354.125, 190.292 350 C 186.939 342.726, 186.852 342.229, 187.423 333.500 L 188.012 324.500 185.467 329.289 C 181.892 336.016, 175.878 341.669, 168.669 345.080 C 158.270 349.999, 155.804 348.659, 162.027 341.469 C 169.613 332.704, 174.950 318.849, 174.985 307.832 C 175.012 299.517, 174.171 299.266, 169.518 306.202 C 167.192 309.669, 163.367 314.243, 161.017 316.366 C 154.827 321.958, 145.044 325.881, 141.993 323.996 C 140.778 323.245, 141.370 322.189, 145.191 318.287 C 154.254 309.036, 160.137 296.165, 161.550 282.500 L 162.170 276.500 159.207 281.500 C 155.054 288.508, 147.123 295.574, 139.223 299.306 C 133.818 301.859, 131.217 302.483, 125.956 302.491 C 115.135 302.506, 109.238 296.890, 118.750 295.627 C 125.874 294.682, 135.434 289.715, 140.869 284.135 C 147.266 277.567, 152.237 267.070, 155.941 252.308 C 157.623 245.603, 159 239.653, 159 239.087 C 159 238.520, 155.287 236.285, 150.750 234.119 C 139 228.511, 137 226.738, 137 221.927 C 137 215.709, 140.429 213.139, 154.737 208.634 C 176.123 201.901, 207.508 203.354, 228 212.027 C 235.462 215.185, 245.582 221.786, 250.830 226.918 L 255.160 231.153 259.330 227.003 C 265.112 221.248, 275.106 214.865, 284 211.246 C 296.424 206.191, 306.366 204.560, 324.500 204.601 C 342.875 204.644, 353.868 206.728, 365.027 212.286 C 370.781 215.151, 371.605 215.934, 372.445 219.333 C 373.076 221.881, 373.040 223.714, 372.340 224.828 C 371.424 226.285, 363.168 231.582, 352.955 237.266 C 350.576 238.590, 350.045 239.350, 350.836 240.302 C 351.415 241, 352.816 245.830, 353.948 251.036 C 356.653 263.472, 362.455 275.487, 369.201 282.619 C 375.373 289.145, 381.051 292.703, 389.890 295.581 L 396.279 297.662 393.993 299.792 C 389.507 303.972, 379.953 303.568, 370.614 298.803 C 365.165 296.023, 357.693 288.781, 352.855 281.592 L 348.757 275.500 349.459 282.500 C 350.821 296.074, 356.421 308.361, 365.680 318.090 C 368.606 321.165, 371 324.035, 371 324.468 C 371 325.673, 363.113 324.144, 358.264 321.999 C 353.447 319.868, 343.044 310.425, 339.888 305.319 C 336.557 299.929, 335.642 301.089, 336.423 309.712 C 337.610 322.816, 342.299 334.029, 350.152 342.549 C 352.268 344.845, 354 347.011, 354 347.362 C 354 348.970, 347.770 347.725, 342.407 345.046 C 335.379 341.534, 330.230 336.507, 325.973 329 L 322.853 323.500 323.460 332.717 C 324.030 341.370, 323.902 342.258, 321.375 347.217 C 319.894 350.123, 317.512 356.100, 316.082 360.500 C 313.612 368.099, 313.246 368.627, 308.776 371.042 C 306.189 372.440, 302.976 374.614, 301.637 375.872 C 298.283 379.022, 293.759 389.484, 293.188 395.405 L 292.716 400.311 297.497 399.656 C 305.240 398.594, 325.328 391.433, 336.138 385.880 C 353.811 376.802, 368.463 365.196, 380.806 350.500 C 399.617 328.100, 411.684 303.624, 418.114 274.826 C 421.045 261.696, 421.862 231.304, 419.658 217.385 C 416.410 196.880, 407.637 172.205, 396.958 153.540 C 376.419 117.644, 338.923 89.285, 298.171 78.828 C 288.337 76.304, 284.375 75.807, 273 75.666 L 259.500 75.500 259.809 78.500 C 260.276 83.031, 263.886 85.285, 277.305 89.424 C 292.351 94.064, 301.396 98.182, 312.739 105.553 C 332.161 118.175, 344.512 130.790, 356.018 149.756 C 363.029 161.312, 372.385 183.369, 374.339 192.948 C 375.475 198.515, 376.116 199.438, 385.720 209.309 C 394.755 218.595, 402 227.891, 402 230.196 C 402 230.638, 400.507 231, 398.682 231 C 392.529 231, 385.652 233.745, 381.843 237.720 C 375.534 244.304, 374.528 247.223, 374.513 259 C 374.506 264.775, 374.858 271.188, 375.295 273.250 C 376.948 281.044, 371.597 276.165, 366.956 265.646 C 365.159 261.572, 364.869 259.308, 365.157 251.570 C 365.451 243.680, 365.936 241.494, 368.522 236.425 C 371.378 230.828, 373.905 228.486, 382.525 223.445 C 384.147 222.496, 383.807 221.899, 379.176 217.568 C 359.052 198.744, 334.697 188.904, 300.897 185.940 C 294.079 185.342, 286.025 185.148, 283 185.507 C 277.113 186.207, 272.536 188.440, 273.567 190.109 C 273.964 190.750, 274.860 190.532, 275.975 189.522 C 280.182 185.715, 289.382 187.109, 291.970 191.945 C 293.643 195.070, 293.197 200.803, 291.120 202.880 C 290.087 203.913, 286.824 205.536, 283.870 206.485 C 276.093 208.984, 266.253 215.032, 260.332 220.954 L 255.179 226.106 250.668 221.284 C 245.455 215.710, 236.467 210.117, 226.761 206.409 C 219.039 203.458, 217.532 201.528, 218.326 195.607 C 219.122 189.674, 222.932 186.620, 228.724 187.272 C 231.120 187.542, 233.966 188.564, 235.047 189.542 C 237.343 191.620, 239.079 190.651, 236.923 188.494 C 231.727 183.299, 200.563 184.879, 177.488 191.509 C 160.472 196.398, 142.451 206.199, 130.750 216.928 L 125 222.201 130.798 225.948 C 140.549 232.250, 145.424 241.991, 145.381 255.089 C 145.359 261.845, 144.975 263.373, 141.882 269.009 C 138.675 274.853, 135.729 278.095, 134.654 276.965 C 134.411 276.709, 134.830 273.575, 135.585 270 C 137.251 262.114, 137.335 257.658, 135.938 251.148 C 133.555 240.037, 125.334 232.406, 114.547 231.293 C 111.496 230.978, 109 230.315, 109 229.820 C 109 225.425, 119.967 211.586, 129.396 204.083 C 134.466 200.049, 136 198.229, 136 196.252 C 136 192.097, 142.757 173.403, 148.613 161.357 C 161.883 134.060, 183.299 111.963, 208.913 99.141 C 214.307 96.440, 224.686 92.266, 231.977 89.865 C 239.269 87.464, 246.307 84.509, 247.617 83.298 C 251.388 79.812, 250.356 73.288, 246.168 74.135 C 245.801 74.209, 241.571 74.649, 236.768 75.112 M 234.726 102.554 C 216.488 107.559, 202.143 116.168, 188 130.599 C 179.335 139.440, 179.207 139.890, 186.827 134.729 C 198.867 126.573, 218.008 119.868, 237 117.152 L 249.500 115.364 249.792 107.682 L 250.084 100 246.792 100.073 C 244.981 100.114, 239.552 101.230, 234.726 102.554 M 261.208 107.711 L 261.500 115.421 271.243 116.642 C 290.073 119.001, 307.760 125.107, 321.319 133.930 C 325.269 136.500, 329.175 139.010, 330 139.508 C 333.683 141.732, 317.782 125.178, 311.526 120.275 C 299.590 110.921, 273.796 100, 263.640 100 L 260.916 100 261.208 107.711 M 229.909 129.554 C 215.706 132.126, 198.696 139.457, 183.284 149.649 C 178.765 152.637, 174.838 155.453, 174.558 155.906 C 174.278 156.359, 177.076 156.521, 180.775 156.266 C 189.438 155.669, 199.196 157.943, 208.137 162.641 C 211.912 164.625, 215 166.587, 215 167.001 C 215 167.416, 214.368 168.279, 213.596 168.920 C 212.523 169.811, 209.939 169.722, 202.607 168.542 C 197.335 167.694, 188.837 167, 183.723 167 C 171.827 167, 167.662 168.946, 160.173 178 C 157.217 181.575, 153.718 185.784, 152.399 187.353 C 151.079 188.922, 150 190.302, 150 190.420 C 150 190.538, 153.493 188.970, 157.762 186.936 C 182.185 175.298, 217.944 170.679, 234.488 177.025 C 247.414 181.983, 250.646 190.882, 242.360 198.696 C 240.344 200.598, 239.465 202, 240.289 202 C 241.077 202, 243.379 203.125, 245.405 204.500 C 247.431 205.875, 249.294 207, 249.544 207 C 249.795 207, 250 189.225, 250 167.500 L 250 128 243.750 128.090 C 240.313 128.139, 234.084 128.798, 229.909 129.554 M 261 167.615 L 261 207.230 263.250 205.763 C 264.488 204.957, 267.047 203.499, 268.939 202.525 L 272.377 200.754 269.777 199.391 C 266.281 197.559, 263.434 190.203, 264.721 186.323 C 265.970 182.557, 272.886 177.408, 279.226 175.526 C 285.850 173.559, 303.556 173.530, 315.500 175.468 C 327.544 177.422, 343.660 182.300, 352.081 186.541 C 355.859 188.443, 359.214 190, 359.537 190 C 360.430 190, 354.061 181.337, 349.047 175.733 C 342.737 168.679, 338.219 167, 325.548 167 C 319.891 167, 311.407 167.672, 306.696 168.494 C 295.738 170.405, 292.684 169.459, 296.734 165.409 C 300.984 161.159, 317.155 156.058, 326.507 156.017 C 328.710 156.008, 332.029 156.435, 333.881 156.966 C 337.158 157.906, 337.201 157.880, 335.512 156.013 C 330.025 149.950, 308.675 137.838, 295.500 133.315 C 288.103 130.775, 272.382 128.016, 265.250 128.006 L 261 128 261 167.615 M 224.314 139.950 C 220.202 142.458, 218.833 145.126, 218.833 150.638 C 218.833 156.145, 221.057 159.708, 225.705 161.650 C 232.962 164.682, 241.854 160.558, 244.080 153.128 C 247.229 142.617, 234.194 133.926, 224.314 139.950 M 273.096 139.265 C 267.165 142.313, 264.846 151.063, 268.493 156.629 C 274.221 165.372, 287.760 164.605, 291.640 155.319 C 294.075 149.492, 291.487 142.338, 285.901 139.449 C 282.485 137.682, 276.348 137.594, 273.096 139.265 M 171.323 170.613 C 167.341 172.576, 166.521 174.619, 168.500 177.641 C 170.406 180.549, 172.916 180.640, 176.365 177.927 C 180.431 174.729, 179.644 168.870, 175.168 169.023 C 174.801 169.035, 173.070 169.751, 171.323 170.613 M 332.192 170.750 C 330.014 175.091, 335.260 181.005, 339.965 179.511 C 344.247 178.152, 343.187 171.782, 338.374 169.952 C 334.743 168.571, 333.185 168.773, 332.192 170.750 M 227.667 193.667 C 227.300 194.033, 227 195.413, 227 196.733 C 227 198.746, 227.430 199.082, 229.673 198.816 C 232.931 198.431, 233.638 196.781, 231.473 194.616 C 229.729 192.872, 228.715 192.619, 227.667 193.667 M 279.380 195.452 C 278.617 197.441, 279.747 199, 281.952 199 C 283.871 199, 285.411 196.473, 284.444 194.910 C 283.555 193.470, 279.994 193.852, 279.380 195.452 M 224.500 228.119 C 221.223 229.970, 220 232.163, 220 236.191 C 220 240.828, 222.794 244, 226.878 244 C 230.513 244, 232.414 241.787, 231.593 238.513 C 230.748 235.147, 233.436 235.133, 237.972 238.480 C 246.738 244.947, 247.227 252.706, 239.339 260.196 C 234.800 264.508, 227.597 267.114, 216.960 268.294 C 208.779 269.202, 206.308 269.127, 201.841 267.834 C 198.903 266.984, 195.825 266.111, 195 265.894 C 192.952 265.356, 192.539 270.464, 194.044 277.713 C 195.655 285.470, 198.592 288.194, 207.770 290.444 C 218.826 293.153, 219 293.521, 219 314.156 C 219 333.073, 218.110 330.803, 226.803 334.052 C 230.801 335.546, 233.542 340.441, 235.332 349.282 C 236.024 352.702, 237.010 355.500, 237.523 355.500 C 238.035 355.500, 240.161 352.350, 242.246 348.500 C 247.145 339.454, 248.940 338, 255.210 338 C 261.258 338, 263.503 340.037, 269.475 350.945 L 273.450 358.205 275.130 349.667 C 277.609 337.074, 279.613 334.437, 288.102 332.599 C 290.554 332.069, 290.741 331.596, 291.352 324.367 C 291.708 320.149, 292 312.520, 292 307.414 C 292 302.308, 292.415 297.039, 292.922 295.705 C 293.918 293.084, 298.092 291.072, 306.757 289.034 C 313.033 287.557, 315.416 284.951, 316.926 277.910 C 318.116 272.363, 318.331 266.664, 317.387 265.720 C 317.049 265.383, 314.912 265.870, 312.637 266.803 C 307.588 268.874, 293.209 269.055, 284.760 267.154 C 278.450 265.734, 270.794 261.067, 267.572 256.677 C 266.147 254.735, 265.500 252.335, 265.500 248.992 C 265.500 244.995, 266.013 243.595, 268.390 241.115 C 271.521 237.847, 277.573 235.055, 276.732 237.267 C 275.900 239.454, 277.876 243.002, 280.477 243.991 C 285.145 245.766, 290 241.629, 290 235.876 C 290 232.604, 284.676 228, 280.893 228 C 272.954 228, 263.153 236.266, 258.886 246.561 C 257.646 249.552, 256.249 252, 255.780 252 C 255.312 252, 254.059 249.971, 252.996 247.491 C 250.665 242.054, 243.071 233.703, 237.534 230.490 C 232.563 227.605, 227.153 226.621, 224.500 228.119 M 173.603 275.583 C 173.237 279.387, 172.710 284.075, 172.432 286 C 171.945 289.361, 172.175 289.668, 178.213 293.733 C 181.671 296.062, 187.425 299.008, 191 300.281 L 197.500 302.595 197.813 311.047 C 198.159 320.393, 197.320 324.256, 192.765 334.270 L 189.686 341.039 193.767 344.532 C 196.655 347.004, 198.343 349.557, 199.542 353.263 C 201.826 360.325, 202.994 361.411, 207.413 360.582 C 209.386 360.212, 211 359.777, 211 359.614 C 211 359.452, 208.760 355.592, 206.022 351.037 C 200.176 341.310, 199.364 338.001, 201.063 330.821 C 201.755 327.894, 202.586 320.775, 202.911 315 L 203.500 304.500 207 303.973 C 210.394 303.462, 210.432 303.408, 208.258 302.192 C 207.025 301.502, 201.400 299.342, 195.758 297.390 C 183.774 293.246, 177.387 289.796, 176.496 286.986 C 176.145 285.883, 176.160 282.567, 176.529 279.618 C 177.011 275.759, 176.788 273.473, 175.734 271.461 C 174.290 268.705, 174.259 268.764, 173.603 275.583 M 333.150 279.250 L 333.500 288.500 326.500 292.193 C 322.650 294.223, 316.350 296.849, 312.500 298.028 C 302.394 301.121, 301 301.782, 301 303.479 C 301 304.486, 301.967 305, 303.863 305 L 306.726 305 307.439 314.750 C 307.832 320.113, 308.819 327.727, 309.633 331.671 C 311.109 338.822, 311.106 338.857, 308.422 344.171 C 306.942 347.102, 304.398 351.444, 302.769 353.820 C 301.140 356.196, 300.014 358.348, 300.268 358.601 C 300.521 358.854, 302.116 359.460, 303.812 359.946 C 307.403 360.976, 308.023 360.445, 310.803 353.959 C 313.079 348.650, 317.608 343, 319.589 343 C 321.689 343, 321.322 340.856, 318.107 334.353 C 313.965 325.974, 313.012 321.688, 313.006 311.408 L 313 302.317 317.250 301.062 C 322.412 299.538, 331.529 294.796, 335.172 291.741 C 337.784 289.550, 337.822 289.355, 336.864 283 C 336.326 279.425, 335.666 275.038, 335.397 273.250 C 335.129 271.462, 334.435 270, 333.854 270 C 333.165 270, 332.921 273.207, 333.150 279.250 M 231.117 280.631 C 226.135 284.120, 224.561 293.128, 227.960 298.701 C 230.405 302.712, 233.775 304.442, 241.861 305.840 C 249.174 307.104, 250.629 308.034, 251.500 312 C 252.319 315.731, 254.223 317.220, 257.663 316.822 C 259.870 316.567, 260.660 315.775, 261.473 313 C 263.040 307.658, 263.618 307.176, 269.957 305.929 C 280.146 303.924, 285.273 299.327, 285.273 292.195 C 285.273 287.912, 281.868 280.547, 279.461 279.623 C 272.078 276.790, 267.860 282.950, 274.500 286.867 C 278.232 289.070, 279.096 292.257, 276.750 295.169 C 274.264 298.254, 272.094 298.080, 268.105 294.475 C 265.342 291.979, 262.951 290.818, 259.641 290.364 C 253.613 289.538, 246.540 291.528, 244.514 294.620 C 243.489 296.184, 241.999 297, 240.168 297 C 235.809 297, 233.790 294.965, 234.171 290.956 C 234.435 288.187, 235.142 287.202, 237.728 286 C 241.533 284.232, 241.830 282.694, 238.777 280.557 C 235.944 278.572, 234.029 278.591, 231.117 280.631 M 276.553 311.337 C 275.035 312.448, 274.842 313.464, 275.420 317.317 C 276.087 321.765, 275.984 322.039, 272.937 323.892 C 270.032 325.658, 269.411 325.704, 265.753 324.413 C 260.979 322.728, 249.568 322.558, 245.132 324.104 C 238.351 326.468, 233.463 322.410, 236.632 317.047 C 238.060 314.629, 238.132 313.864, 237.054 312.566 C 235.067 310.171, 229.420 310.562, 227.557 313.223 C 224.143 318.097, 226.405 325.017, 232.796 329.246 C 236.214 331.508, 236.790 332.444, 237.244 336.472 C 237.860 341.940, 238.812 343.203, 240.367 340.616 C 244.804 333.237, 250.509 330.278, 257.765 331.591 C 263.628 332.652, 266.872 334.759, 268.446 338.524 C 269.244 340.436, 270.350 342, 270.902 342 C 271.930 342, 273.984 335.872, 273.994 332.776 C 273.997 331.827, 275.412 330.321, 277.137 329.429 C 282.583 326.613, 285 323.208, 285 318.354 C 285 311.716, 280.803 308.230, 276.553 311.337 M 230 391.126 C 230 393.923, 235.118 411.320, 239.539 423.554 C 243.616 434.833, 253.979 460.077, 255.044 461.324 C 256.194 462.670, 268.432 432.605, 274.356 413.879 C 280.677 393.901, 281.500 390.427, 280.121 389.575 C 279.573 389.236, 273.855 391.716, 267.416 395.086 L 255.707 401.214 245.480 396.130 C 230.828 388.847, 230 388.580, 230 391.126" stroke="black" fill="white" fill-rule="evenodd"/>
</svg>
